<svg xmlns="http://www.w3.org/2000/svg" version="1.1" xmlns:xlink="http://www.w3.org/1999/xlink" xmlns:svgjs="http://svgjs.com/svgjs" width="1000" height="1000"><rect width="1000" height="1000" rx="200" ry="200" fill="#1e3a8a"></rect><g transform="matrix(0.33749999578125,0,0,0.33749999578125,48.38387820992352,41.352458029649824)"><svg xmlns="http://www.w3.org/2000/svg" version="1.1" xmlns:xlink="http://www.w3.org/1999/xlink" xmlns:svgjs="http://svgjs.com/svgjs" width="2666.6667" height="2666.6667"><svg xmlns:dc="http://purl.org/dc/elements/1.1/" xmlns:cc="http://creativecommons.org/ns#" xmlns:rdf="http://www.w3.org/1999/02/22-rdf-syntax-ns#" xmlns:svg="http://www.w3.org/2000/svg" xmlns="http://www.w3.org/2000/svg" viewBox="0 0 2666.6667 2666.6667" height="2666.6667" width="2666.6667" xml:space="preserve" id="svg3751" version="1.1"><metadata id="metadata3757"><rdf:rdf><cc:work rdf:about=""><dc:format>image/svg+xml</dc:format><dc:type rdf:resource="http://purl.org/dc/dcmitype/StillImage"></dc:type><dc:title></dc:title></cc:work></rdf:rdf></metadata><defs id="defs3755"><clipPath id="clipPath3771" clipPathUnits="userSpaceOnUse"><path id="path3769" d="M 0,2000 H 2000 V 0 H 0 Z"></path></clipPath></defs><g transform="matrix(1.3333333,0,0,-1.3333333,0,2666.6667)" id="g3759">
<g transform="matrix(3.8669408,0,0,3.8669408,-2861.0358,-3527.8788)" id="g3765"><g clip-path="url(#clipPath3771)" id="g3767"><g transform="translate(1378.9268,829.1309)" id="g3773"></g><g transform="translate(1062.4326,819.0732)" id="g3777"></g><g transform="translate(799.8223,870.5137)" id="g3781"></g><g transform="translate(971.0605,814.3643)" id="g3785"></g><g transform="translate(1493.4814,822.0928)" id="g3789"></g><g transform="translate(1202.9053,874.9502)" id="g3793"></g><g transform="translate(696.416,870.5645)" id="g3797"></g><g transform="translate(586.9541,847.5791)" id="g3801"></g><g transform="translate(1219.2891,847.6318)" id="g3805"></g><g transform="translate(502.5068,874.8789)" id="g3809"></g><g transform="translate(1058.291,1247.7432)" id="g3813"><path id="path3815" style="fill:#fff;fill-opacity:1;fill-rule:nonzero;stroke:none" d="m 0,0 -50.591,-51.807 36.639,-38.784 v -3.832 l -119.51,-122.571 -94.058,75.88 V -11.449 L -42.908,165.172 H -147.686 L -299.952,19.496 v -194.507 l 170.891,-139.993 187.541,190.568 v 62.707 z"></path></g><g transform="translate(1071.2988,1414.1646)" id="g3817"><path id="path3819" style="fill:#fff;fill-opacity:1;fill-rule:nonzero;stroke:none" d="M 0,0 -199.841,-198.985 V -262.8 l 61.64,-58.83 50.009,52.397 -39.216,37.43 v 2.723 L 0.097,-102.119 93.93,-195.195 v -104.881 l -174.088,-180.1 H 20.581 l 145.781,150.815 v 164.341 z"></path></g></g></g></g></svg></svg></g></svg>